<?xml version="1.0" encoding="UTF-8" standalone="no"?> <svg width="512" height="512" viewBox="0 0 512 512" fill="none" xmlns="http://www.w3.org/2000/svg">
<path d="M32 128C32 74.9807 74.9807 32 128 32H384C437.019 32 480 74.9807 480 128V384C480 437.019 437.019 480 384 480H128C74.9807 480 32 437.019 32 384V128Z" fill="#597DDC"/>
<path d="M32 112C32 67.8172 67.8172 32 112 32H368C412.183 32 448 67.8172 448 112V368C448 412.183 412.183 448 368 448H112C67.8172 448 32 412.183 32 368V112Z" fill="#6EBAFF"/>
<path fill-rule="evenodd" clip-rule="evenodd" d="M24 128C24 70.5624 70.5624 24 128 24H384C441.438 24 488 70.5624 488 128V384C488 441.438 441.438 488 384 488H128C70.5624 488 24 441.438 24 384V128ZM128 40C79.3989 40 40 79.3989 40 128V384C40 432.601 79.3989 472 128 472H384C432.601 472 472 432.601 472 384V128C472 79.3989 432.601 40 384 40H128Z" fill="black"/>
<path fill-rule="evenodd" clip-rule="evenodd" d="M148 128C148 116.954 156.954 108 168 108H328C347.882 108 364 124.118 364 144V272C364 344.902 304.902 404 232 404H168C156.954 404 148 395.046 148 384C148 372.954 156.954 364 168 364H232C282.81 364 324 322.81 324 272V148H168C156.954 148 148 139.046 148 128Z" fill="white"/>
<path fill-rule="evenodd" clip-rule="evenodd" d="M140 128C140 112.536 152.536 100 168 100H328C352.301 100 372 119.699 372 144V272C372 349.32 309.32 412 232 412H168C152.536 412 140 399.464 140 384C140 368.536 152.536 356 168 356H232C278.392 356 316 318.392 316 272V156H168C152.536 156 140 143.464 140 128ZM168 116C161.373 116 156 121.373 156 128C156 134.627 161.373 140 168 140H324C328.418 140 332 143.582 332 148V272C332 327.228 287.228 372 232 372H168C161.373 372 156 377.373 156 384C156 390.627 161.373 396 168 396H232C300.483 396 356 340.483 356 272V144C356 128.536 343.464 116 328 116H168Z" fill="black"/>
</svg>
